<?xml version="1.0" encoding="utf-8"?>
<!-- Generator: Adobe Illustrator 19.0.0, SVG Export Plug-In . SVG Version: 6.00 Build 0)  -->
<svg version="1.1" id="Layer_1" xmlns="http://www.w3.org/2000/svg" xmlns:xlink="http://www.w3.org/1999/xlink" x="0px" y="0px"
	 viewBox="0 0 500 500" style="enable-background:new 0 0 500 500;" xml:space="preserve">
<style type="text/css">
	.st0{fill:#D0021B;}
</style>
<g id="XMLID_1_">
	<path id="XMLID_2_" d="M178.8,282.6c18.3,0,33.1-14.8,33.1-33.1c0-18.3-14.8-33.1-33.1-33.1c-18.3,0-33.1,14.8-33.1,33.1
		C145.7,267.8,160.5,282.6,178.8,282.6z M100.6,348.8c18.3,0,33.1-14.8,33.1-33.1c0-18.3-14.8-33.1-33.1-33.1
		c-18.3,0-33.1,14.8-33.1,33.1C67.5,334,82.3,348.8,100.6,348.8z M399.4,348.8c18.3,0,33.1-14.8,33.1-33.1
		c0-18.3-14.8-33.1-33.1-33.1c-18.3,0-33.1,14.8-33.1,33.1C366.3,334,381.1,348.8,399.4,348.8z"/>
	<path id="XMLID_6_" class="st0" d="M290.7,250.9c-1.1-11.1-1.6-20.3-10.1-26.7c-10.7-8.2-22.9-2.9-37.8-8.3
		c-14.7-3.6-25.6-16.6-25.6-32.2c0-18.3,15.1-33.1,33.7-33.1c13.8,0,25.6,8.1,30.8,19.8c8,15.2,2.8,30.6,12.8,38.4
		c11.9,9.2,27.9,2.5,45.8,11.2c5.7,2.6,10.6,6.8,14,12c3.4,5.2,5.4,11.4,5.4,18c0,15.6-10.9,28.6-25.6,32.2
		c-15,5.4-27.1,0.1-37.8,8.3c-12.1,9.2-5.6,24.6-15.4,40.9c-5.6,10.7-16.9,18.1-30,18.1c-18.6,0-33.7-14.8-33.7-33.1
		c0-13.3,8-24.8,19.4-30c17.9-8.7,33.9-2,45.8-11.2C289.3,269.7,290.7,261.5,290.7,250.9z"/>
</g>
</svg>
